<svg width="911" height="106" viewBox="0 0 911 106" fill="none" xmlns="http://www.w3.org/2000/svg">
<path d="M640.109 80.9982C687.814 131.394 740.148 202.431 788.2 285.401H788.072L788.505 286.152C842.015 378.686 880.047 468.445 898.287 538.758C907.408 573.919 911.573 604.188 910.264 627.498C908.955 650.83 902.173 667.044 889.567 674.328C884.751 676.983 879.302 678.5 873.215 678.5L108.061 678.376H108.048L108.034 678.376C93.5917 679.17 75.5211 672.357 54.9601 658.953C34.4145 645.559 11.449 625.629 -12.7646 600.299C-61.1902 549.64 -114.564 477.428 -163.506 392.852C-217.015 300.318 -255.047 210.559 -273.288 140.246C-282.409 105.085 -286.573 74.8164 -285.264 51.5063C-283.954 28.1718 -277.172 11.957 -264.563 4.67358L-264.562 4.67276C-260.018 2.02838 -254.83 0.759323 -249.105 0.504095H-249.104H-249.101H-249.097H-249.093H-249.089H-249.085H-249.081H-249.077H-249.074H-249.07H-249.066L-249.062 0.504095H-249.058H-249.054H-249.05H-249.046H-249.042H-249.038H-249.034H-249.03H-249.025H-249.021H-249.017H-249.013H-249.009H-249.005H-249.001H-248.997H-248.992H-248.988H-248.984H-248.98H-248.976H-248.971H-248.967H-248.963H-248.958H-248.954H-248.95H-248.946H-248.941H-248.937H-248.933H-248.928H-248.924H-248.92H-248.915H-248.911H-248.906H-248.902H-248.898H-248.893H-248.889H-248.884H-248.88H-248.875H-248.871H-248.866H-248.862H-248.857H-248.853H-248.848H-248.844H-248.839H-248.835H-248.83H-248.825H-248.821H-248.816H-248.812H-248.807H-248.802H-248.798H-248.793H-248.789H-248.784H-248.779H-248.775H-248.77H-248.765H-248.76H-248.756H-248.751H-248.746H-248.742H-248.737H-248.732H-248.727H-248.723H-248.718H-248.713H-248.708H-248.704H-248.699H-248.694H-248.689H-248.684H-248.68H-248.675H-248.67H-248.665H-248.66H-248.656H-248.651H-248.646H-248.641H-248.636H-248.631H-248.626H-248.622H-248.617H-248.612H-248.607H-248.602H-248.597H-248.592H-248.587H-248.582H-248.577H-248.573H-248.568H-248.563H-248.558H-248.553H-248.548H-248.543H-248.538H-248.533H-248.528H-248.523H-248.518H-248.513H-248.508H-248.503H-248.498H-248.493H-248.488H-248.483H-248.478H-248.473H-248.468H-248.463H-248.458H-248.453H-248.448H-248.443H-248.438H-248.433H-248.428H-248.423H-248.418H-248.413H-248.408H-248.403H-248.398H-248.393H-248.388H-248.383H-248.378L-248.373 0.504095H-248.368H-248.363H-248.358H-248.353H-248.348H-248.343H-248.338H-248.333H-248.328H-248.323H-248.318H-248.313H-248.308H-248.303H-248.298H-248.293H-248.288H-248.283H-248.278H-248.273H-248.268H-248.263H-248.258H-248.253H-248.248H-248.243H-248.238H-248.232H-248.227H-248.222H-248.217H-248.212H-248.207H-248.202H-248.197H-248.192H-248.187H-248.182H-248.178H-248.173H-248.168H-248.163H-248.158H-248.153H-248.148H-248.143H-248.138H-248.133H-248.128H-248.123H-248.118H-248.113H-248.108H-248.103H-248.098H-248.093H-248.088H-248.083H-248.078H-248.074H-248.069H-248.064H-248.059H-248.054H-248.049H-248.044H-248.039H-248.034H-248.029H-248.025H-248.02H-248.015H-248.01H-248.005H-248H-247.996H-247.991H-247.986H-247.981H-247.976H-247.971H-247.967H-247.962H-247.957H-247.952H-247.948H-247.943H-247.938H-247.933H-247.929H-247.924H-247.919H-247.914H-247.91H-247.905H-247.9H-247.896H-247.891H-247.886H-247.881H-247.877H-247.872H-247.868H-247.863H-247.858H-247.854H-247.849H-247.844H-247.84H-247.835H-247.831H-247.826H-247.822H-247.817H-247.812H-247.808H-247.803H-247.799H-247.794H-247.79H-247.785H-247.781H-247.776H-247.772H-247.768H-247.763H-247.759H-247.754H-247.75H-247.745H-247.741H-247.737H-247.732H-247.728H-247.724H-247.719H-247.715H-247.711H-247.706H-247.702H-247.698H-247.694H-247.689H-247.685L-247.681 0.504095H-247.677H-247.672H-247.668H-247.664H-247.66H-247.656H-247.652H-247.647H-247.643H-247.639H-247.635H-247.631H-247.627H-247.623H-247.619H-247.615H-247.611H-247.607H-247.603H-247.599H-247.595H-247.591H-247.587H-247.583H-247.579H-247.575H-247.571H-247.567H-247.564H-247.56H-247.556H-247.552H-247.548H-247.545H-247.541H-247.537H-247.533H-247.53H-247.526H-247.522H-247.518H-247.515H-247.511H-247.508H-247.504H-247.5H-247.497H-247.493H-247.49H-247.486H-247.483H-247.479H-247.476H-247.472H-247.469H-247.465H-247.462H-247.458H-247.455H-247.452H-247.448H-247.445H-247.442H-247.438H-247.435H-247.432H-247.428H-247.425H-247.422H-247.419H-247.416H-247.412H-247.409H-247.406H-247.403H-247.4H-247.397H-247.394H-247.391H-247.388H-247.385H-247.382H-247.379H-247.376H-247.373H-247.37H-247.367H-247.364H-247.362H-247.359H-247.356H-247.353H-247.35H-247.348H-247.345H-247.342H-247.339H-247.337H-247.334H-247.332H-247.329H-247.326H-247.324H-247.321H-247.319H-247.316H-247.314H-247.311H-247.309H-247.306H-247.304H-247.302H-247.299H-247.297H-247.295H-247.292H-247.29H-247.288H-247.286H-247.283H-247.281H-247.279H-247.277H-247.275H-247.273H-247.271H-247.269H-247.267H-247.265H-247.263H-247.261H-247.259H-247.257H-247.255H-247.253H-247.251H-247.249H-247.248H-247.246H-247.244H-247.242H-247.241H-247.239H-247.237H-247.236H-247.234H-247.233H-247.231H-247.23H-247.228H-247.227H-247.225H-247.224H-247.222H-247.221H-247.22H-247.218H-247.217H-247.216H-247.214H-247.213H-247.212H-247.211H-247.21H-247.208H-247.207H-247.206H-247.205H-247.204H-247.203H-247.202H-247.201H-247.2H-247.2H-247.199H-247.198H-247.197H-247.196H-247.196H-247.195H-247.194H-247.193H-247.193H-247.192H-247.192H-247.191H-247.191H-247.19H-247.19H-247.189H-247.189H-247.188H-247.188H-247.188H-247.187H-247.187H-247.187H-247.187H-247.186H-247.186H-247.186H-247.186H-247.186H-247.186L517.964 0.5L518.817 0.5L519.763 0.5C534.411 0.62781 552.517 8.07994 572.982 21.8701C593.434 35.6518 616.184 55.7238 640.109 80.9982Z" stroke="#EBF0FA"/>
</svg>
