<svg width="52" height="32" viewBox="0 0 52 32" fill="none" xmlns="http://www.w3.org/2000/svg">
<path d="M51.2906 11.6198C48.6641 2.98497 39.5117 -1.89862 30.8387 0.701062L16.2259 5.10787L11.6402 0C2.97607 2.62874 -1.91705 11.7481 0.709445 20.3829C3.33594 29.0178 12.4884 33.9014 21.1614 31.3017L35.7831 26.8922L40.3687 32C49.0273 29.3677 53.9161 20.2517 51.2906 11.6198ZM38.5474 26.0444L35.7731 26.881L31.1874 21.7731L19.349 25.3433C13.9808 26.9463 8.31888 23.9225 6.69332 18.5784C5.06776 13.2342 8.09328 7.59051 13.4526 5.95841L16.2359 5.11904L20.8216 10.2269L32.651 6.65946C38.0192 5.05644 43.6812 8.08021 45.3067 13.4244C46.9323 18.7686 43.9067 24.4123 38.5474 26.0444Z" fill="#1E232B"/>
</svg>
