<svg width="20" height="20" viewBox="0 0 20 20" fill="none" xmlns="http://www.w3.org/2000/svg">
<circle cx="10" cy="10" r="10" fill="#F5F8FC"/>
<path d="M13.9269 10.6066H15.8286C15.8731 10.6066 15.9158 10.5892 15.9478 10.5581C15.9798 10.527 15.9985 10.4846 16 10.4398V9.05982C16 9.01407 15.9819 8.97019 15.9498 8.93784C15.9176 8.90549 15.874 8.88732 15.8286 8.88732H13.1635L11.064 4.13667C11.0463 4.09628 11.0173 4.06189 10.9806 4.03762C10.9439 4.01335 10.9011 4.00023 10.8572 3.99982H9.14291C9.09882 4.00001 9.05572 4.01303 9.01882 4.03731C8.98191 4.06159 8.95277 4.0961 8.93491 4.13667L6.83664 8.88157H4.17152C4.14852 8.88155 4.12575 8.8862 4.10457 8.89523C4.08339 8.90425 4.06423 8.91747 4.04824 8.93411C4.03224 8.95074 4.01974 8.97044 4.01147 8.99204C4.0032 9.01363 3.99933 9.03668 4.0001 9.05982V10.4398C4.0001 10.4856 4.01816 10.5294 4.05031 10.5618C4.08245 10.5941 4.12606 10.6123 4.17152 10.6123H6.07322L4.0161 15.2629C4.00573 15.2888 4.00177 15.3169 4.00455 15.3446C4.00733 15.3724 4.01676 15.3991 4.03205 15.4224C4.04734 15.4457 4.06801 15.4649 4.09231 15.4784C4.1166 15.4919 4.14378 15.4992 4.17152 15.4998H5.7018C5.74608 15.4998 5.78943 15.4869 5.82656 15.4626C5.86369 15.4383 5.893 15.4037 5.91094 15.363L10 6.12157L14.0892 15.363C14.1071 15.4037 14.1364 15.4383 14.1735 15.4626C14.2107 15.4869 14.254 15.4998 14.2983 15.4998H15.8286C15.8571 15.4998 15.8853 15.4926 15.9104 15.4789C15.9355 15.4652 15.9568 15.4454 15.9723 15.4213C15.9879 15.3971 15.9972 15.3695 15.9994 15.3409C16.0017 15.3122 15.9968 15.2834 15.9851 15.2572L13.9269 10.6066Z" fill="black"/>
</svg>
