<svg width="20" height="20" viewBox="0 0 20 20" fill="none" xmlns="http://www.w3.org/2000/svg">
<circle cx="10" cy="10" r="10" fill="#F5F8FC"/>
<path d="M11.8039 9.33098L12.979 7.33714L16.1462 12.2701L16.1476 13.2168L16.1373 6.70232C16.1298 6.54302 16.0453 6.39731 15.9104 6.31137L10.2082 3.03154C10.0749 2.96597 9.9057 2.96676 9.77259 3.03361C9.75457 3.04266 9.73774 3.05241 9.72159 3.06314L9.7017 3.07565L4.16684 6.28301L4.14538 6.29286C4.11771 6.30546 4.08985 6.3217 4.06356 6.34041C3.95861 6.41563 3.88891 6.52698 3.86636 6.65171C3.86302 6.67062 3.86046 6.68991 3.85938 6.70941L3.86804 12.018L6.81815 7.44563C7.18951 6.83936 7.99878 6.64394 8.75007 6.65467L9.63171 6.6779L4.4367 15.0092L5.04907 15.3618L10.3063 6.68637L12.6301 6.6779L7.38641 15.5722L9.57155 16.8292L9.83265 16.9792C9.94311 17.0241 10.0733 17.0264 10.1846 16.9861L15.9669 13.6352L14.8614 14.2758L11.8039 9.33098ZM12.2522 15.788L10.0452 12.3239L11.3925 10.0377L14.291 14.6063L12.2522 15.788Z" fill="#2D374B"/>
<path d="M10.043 12.3239L12.2501 15.7878L14.2888 14.6063L11.3903 10.0376L10.043 12.3239Z" fill="#28A0F0"/>
<path d="M16.1484 13.217L16.1469 12.2703L12.9797 7.3374L11.8047 9.33125L14.8622 14.2761L15.9677 13.6355C16.0761 13.5474 16.1418 13.4182 16.1487 13.2788L16.1484 13.217Z" fill="#28A0F0"/>
<path d="M2.875 14.1097L4.43615 15.0093L9.63116 6.678L8.74952 6.65477C7.99833 6.64413 7.18906 6.83946 6.8176 7.44573L3.86749 12.0181L2.875 13.543V14.1097Z" fill="white"/>
<path d="M12.6279 6.67773L10.3041 6.6862L5.04688 15.3616L6.88448 16.4195L7.38412 15.5721L12.6279 6.67773Z" fill="white"/>
<path d="M17.1263 6.66603C17.1069 6.18007 16.8437 5.73526 16.4316 5.47624L10.6548 2.15408C10.2471 1.94881 9.73778 1.94851 9.3293 2.15398C9.28106 2.1783 3.71145 5.4085 3.71145 5.4085C3.63436 5.44542 3.56013 5.48943 3.49032 5.53944C3.12241 5.80319 2.89814 6.21295 2.875 6.66307V13.5432L3.86749 12.0183L3.85883 6.70954C3.86001 6.69015 3.86247 6.67095 3.86582 6.65214C3.88827 6.52721 3.95807 6.41586 4.06302 6.34054C4.0893 6.32184 9.75392 3.0428 9.77194 3.03374C9.90515 2.9669 10.0743 2.96611 10.2076 3.03168L15.9097 6.3115C16.0446 6.39745 16.1292 6.54316 16.1367 6.70245V13.2785C16.1298 13.418 16.0746 13.5472 15.9662 13.6352L14.8607 14.2759L14.2903 14.6065L12.2515 15.788L10.184 16.9861C10.0726 17.0264 9.94236 17.0241 9.832 16.9793L7.38577 15.5723L6.88602 16.4197L9.08445 17.6854C9.15711 17.7268 9.22189 17.7634 9.27505 17.7933C9.35736 17.8395 9.41348 17.8703 9.43327 17.88C9.58951 17.9559 9.81428 18 10.0169 18C10.2026 18 10.3837 17.9659 10.5551 17.8988L16.5606 14.421C16.9053 14.1539 17.1081 13.7511 17.1263 13.3149V6.66603Z" fill="#96BEDC"/>
</svg>
