<svg width="20" height="20" viewBox="0 0 20 20" fill="none" xmlns="http://www.w3.org/2000/svg">
<g opacity="0.5">
<g style="mix-blend-mode:hue">
<circle cx="10" cy="10" r="10" fill="white"/>
</g>
<path d="M13.091 10.1322C13.2792 9.81262 13.7468 9.81262 13.933 10.1322L15.9336 13.5385C16.1218 13.8581 15.886 14.256 15.5115 14.256H11.5104C11.1359 14.256 10.9021 13.8581 11.0883 13.5385L13.0889 10.1322H13.091Z" fill="#9E9D9D"/>
<path d="M11.8832 7.86409C12.0652 7.54656 12.0652 7.15479 11.8832 6.8352L10.2426 3.98359C10.0584 3.664 9.59913 3.664 9.41501 3.98359L3.92426 13.5364C3.74013 13.856 3.96977 14.256 4.33803 14.256H7.61716C7.98334 14.256 8.32059 14.0601 8.50264 13.7426L11.8811 7.86409H11.8832Z" fill="#9E9D9D"/>
</g>
</svg>
