<svg width="20" height="20" viewBox="0 0 20 20" fill="none" xmlns="http://www.w3.org/2000/svg">
<g opacity="0.5">
<circle cx="10" cy="10" r="10" fill="#F5F8FC"/>
<path d="M9.55805 9.75173C9.54502 9.71235 9.53589 9.67196 9.52884 9.63119C9.52561 9.61229 9.52187 9.5935 9.51758 9.57484C9.5083 9.53428 9.49796 9.49395 9.48679 9.45383C9.67162 9.18432 10.5551 7.77869 9.54976 6.87655C8.4339 5.87531 7.13008 7.18766 7.13008 7.18766L7.13414 7.1935C6.54815 7.02198 5.91274 7.00186 5.29455 7.18761C5.28691 7.17993 3.98741 5.87824 2.87485 6.87655C1.7619 7.87519 2.96367 9.49084 2.96999 9.49925C2.95716 9.53721 2.94685 9.57608 2.94003 9.61546C2.81962 10.3068 2 10.5202 2 11.7245C2 12.9287 2.85745 13.9193 4.60759 13.9193H5.32575C5.32898 13.9237 5.62474 14.3274 6.23189 14.3269C6.7955 14.3265 7.16774 13.9228 7.17097 13.9193H7.85621C9.60638 13.9193 10.4638 12.952 10.4638 11.7245C10.4638 10.603 9.75296 10.3408 9.55805 9.75173Z" fill="black"/>
<path d="M17.9215 8.37562C17.9215 8.37562 18.0517 7.21493 17.0623 6.96554V6.5H16.2961V6.9539C15.2524 7.17627 15.3869 8.37562 15.3869 8.37562V8.57461C15.3869 8.57461 15.2523 9.77426 16.2964 9.99642L16.2963 10.9928C15.1963 11.1858 15.3352 12.4246 15.3352 12.4246V12.6236C15.3352 12.6236 15.2007 13.8229 16.2444 14.0453V14.4992H17.0106V14.0337C18.0001 13.7843 17.8699 12.6236 17.8699 12.6236C17.9131 12.6236 17.9482 12.5898 17.9482 12.5482V12.5C17.9482 12.4584 17.9131 12.4246 17.8699 12.4246C17.8699 12.4246 17.999 11.274 17.0234 11.0178V9.99642H17.0119C18.056 9.77426 17.9215 8.57461 17.9215 8.57461C17.9647 8.57461 17.9998 8.54083 17.9998 8.4992V8.45105C17.9998 8.40939 17.9648 8.37562 17.9215 8.37562ZM17.2971 12.4246H17.227C17.1838 12.4246 17.1487 12.4584 17.1487 12.5V12.5482C17.1487 12.5898 17.1838 12.6236 17.227 12.6236H17.2971C17.2971 13.3436 17.0488 13.4647 16.9653 13.4851C16.9516 13.4885 16.9383 13.4787 16.9383 13.465V13.2355C16.9383 13.1087 16.8543 13.0392 16.7704 13.0014C16.6643 12.9536 16.5408 12.9536 16.4347 13.0014C16.3507 13.0392 16.2668 13.1087 16.2668 13.2355V13.465C16.2668 13.4785 16.2537 13.4885 16.2402 13.4853C16.1571 13.4652 15.908 13.345 15.908 12.6236V12.4246C15.908 11.7046 16.1562 11.5835 16.2397 11.5631C16.2535 11.5597 16.2668 11.5695 16.2668 11.5832V11.8127C16.2668 11.9395 16.3507 12.009 16.4347 12.0469C16.5408 12.0946 16.6643 12.0946 16.7704 12.0469C16.8543 12.009 16.9383 11.9395 16.9383 11.8127V11.5832C16.9383 11.5697 16.9513 11.5597 16.9649 11.563C17.0479 11.583 17.2971 11.7032 17.2971 12.4246ZM17.2787 8.57461H17.3487C17.3487 9.296 17.0996 9.41627 17.0165 9.43627C17.003 9.43956 16.9899 9.42948 16.9899 9.41606V9.18655C16.9899 9.05971 16.906 8.9902 16.822 8.95239C16.716 8.90463 16.5924 8.90463 16.4863 8.95239C16.4024 8.9902 16.3184 9.05971 16.3184 9.18655V9.41606C16.3184 9.42969 16.3051 9.4395 16.2914 9.43615C16.2078 9.41577 15.9596 9.29461 15.9596 8.57461V8.37562C15.9596 7.65422 16.2088 7.53399 16.2918 7.51399C16.3054 7.5107 16.3184 7.5208 16.3184 7.53419V7.76368C16.3184 7.89055 16.4024 7.96006 16.4863 7.99787C16.5924 8.04563 16.716 8.04563 16.822 7.99787C16.906 7.96006 16.9899 7.89055 16.9899 7.76368V7.53419C16.9899 7.52053 17.0032 7.51076 17.017 7.51408C17.1005 7.53449 17.3487 7.65562 17.3487 8.37562H17.2787C17.2354 8.37562 17.2003 8.40939 17.2003 8.45105V8.4992C17.2003 8.54083 17.2354 8.57461 17.2787 8.57461Z" fill="black"/>
<path d="M14.0871 10.4254C14.0871 10.4254 14.2224 9.21905 13.1688 9.00178V7.91802C14.1944 7.68652 14.0613 6.5 14.0613 6.5C14.0613 6.5 13.4862 6.5 13.4886 6.5C13.4886 7.22139 13.2394 7.34163 13.1563 7.36163C13.1428 7.36492 13.1297 7.35482 13.1297 7.34145V7.11194C13.1297 6.98507 13.0458 6.91559 12.9619 6.87778C12.8558 6.83002 12.7322 6.83002 12.6261 6.87778C12.5422 6.91559 12.4583 6.98507 12.4583 7.11194V7.34145C12.4583 7.35508 12.4449 7.36489 12.4312 7.36154C12.3477 7.34116 12.0994 7.22 12.0994 6.5C12.1018 6.5 11.5266 6.5 11.5266 6.5C11.5266 6.5 11.3886 7.73123 12.4778 7.92996V9.0003C11.4166 9.21363 11.5525 10.4253 11.5525 10.4253V10.6243C11.5525 10.6243 11.4166 11.836 12.4778 12.0493V13.0699C11.3886 13.2687 11.5266 14.4999 11.5266 14.4999C11.5266 14.4999 12.1018 14.4999 12.0994 14.4999C12.0994 13.7785 12.3486 13.6582 12.4316 13.6382C12.4452 13.6349 12.4583 13.645 12.4583 13.6584V13.8879C12.4583 14.0148 12.5422 14.0843 12.6261 14.1221C12.7322 14.1699 12.8558 14.1699 12.9619 14.1221C13.0458 14.0843 13.1297 14.0148 13.1297 13.8879V13.6584C13.1297 13.6448 13.1431 13.635 13.1568 13.6383C13.2403 13.6587 13.4886 13.7799 13.4886 14.4999C13.4861 14.4999 14.0613 14.4999 14.0613 14.4999C14.0613 14.4999 14.1944 13.3134 13.1688 13.0819V12.0478C14.2224 11.8306 14.0871 10.6243 14.0871 10.6243C14.1304 10.6243 14.1655 10.5905 14.1655 10.5488V10.5007C14.1655 10.4591 14.1304 10.4254 14.0871 10.4254ZM13.4443 10.6244H13.5144C13.5144 11.3458 13.2652 11.466 13.1822 11.486C13.1686 11.4893 13.1556 11.4792 13.1556 11.4658V11.2363C13.1556 11.1094 13.0716 11.0399 12.9877 11.0021C12.8816 10.9544 12.758 10.9544 12.6519 11.0021C12.568 11.0399 12.4841 11.1094 12.4841 11.2363V11.4658C12.4841 11.4794 12.4708 11.4892 12.457 11.4859C12.3735 11.4655 12.1252 11.3444 12.1252 10.6244V10.4254C12.1252 9.70397 12.3744 9.58374 12.4575 9.56374C12.471 9.56045 12.4841 9.57055 12.4841 9.58391V9.81343C12.4841 9.9403 12.568 10.0098 12.6519 10.0476C12.758 10.0954 12.8816 10.0954 12.9877 10.0476C13.0716 10.0098 13.1556 9.9403 13.1556 9.81343V9.58391C13.1556 9.57028 13.1689 9.56048 13.1826 9.56383C13.2661 9.58421 13.5144 9.70537 13.5144 10.4254H13.4443C13.4011 10.4254 13.366 10.4591 13.366 10.5008V10.549C13.366 10.5906 13.4011 10.6244 13.4443 10.6244Z" fill="black"/>
<g style="mix-blend-mode:hue">
<circle cx="10" cy="10" r="10" fill="white"/>
</g>
</g>
</svg>
