<svg width="20" height="20" viewBox="0 0 20 20" fill="none" xmlns="http://www.w3.org/2000/svg">
<g opacity="0.5">
<circle cx="10" cy="10" r="10" fill="#F5F8FC"/>
<g style="mix-blend-mode:hue">
<circle cx="10" cy="10" r="10" fill="white"/>
</g>
<path d="M6.158 10.0097L6.16438 12.3344L8.15276 13.4968V14.8578L5.00071 13.0212V9.32989L6.158 10.0097ZM6.158 7.68499V9.03966L5 8.35915V7.00448L6.158 6.32397L7.32167 7.00448L6.158 7.68499ZM8.98314 7.00448L10.1411 6.32397L11.3048 7.00448L10.1411 7.68499L8.98314 7.00448Z" fill="#606060"/>
<path d="M6.99463 11.8526V10.4915L8.15263 11.172V12.5267L6.99463 11.8526ZM8.98301 13.9842L10.141 14.6647L11.3047 13.9842V15.3389L10.141 16.0194L8.98301 15.3389V13.9842ZM12.9654 7.00448L14.1234 6.32397L15.2871 7.00448V8.35915L14.1234 9.03966V7.68499L12.9654 7.00448ZM14.1234 12.3344L14.1298 10.0097L15.2878 9.32919V13.0205L12.1358 14.8571V13.496L14.1234 12.3344Z" fill="#606060"/>
<path d="M13.2932 11.8526L12.1353 12.5268V11.1721L13.2932 10.4916V11.8526Z" fill="#606060"/>
<path d="M13.2931 8.16686L13.2994 9.52787L11.3054 10.6902V13.0206L10.1474 13.6947L8.98939 13.0206V10.6902L6.99534 9.52787V8.16686L8.1583 7.48636L10.1403 8.65435L12.1343 7.48636L13.298 8.16686H13.2931ZM6.99463 5.84286L10.141 4L13.2931 5.84286L12.1351 6.52336L10.141 5.35537L8.15263 6.52336L6.99463 5.84286Z" fill="#606060"/>
</g>
</svg>
