<svg width="20" height="20" viewBox="0 0 20 20" fill="none" xmlns="http://www.w3.org/2000/svg">
<g opacity="0.5">
<circle cx="10" cy="10" r="10" fill="#F5F8FC"/>
<path d="M10.1044 1.66669V7.80163C10.1044 7.82768 10.0784 7.85372 10.0523 7.85372C9.87001 7.93334 9.71375 8.01221 9.53145 8.09108C9.29707 8.196 9.03664 8.30166 8.80225 8.43336L7.94284 8.82772L7.23968 9.14396L6.38027 9.53906C6.14588 9.64472 5.9115 9.74964 5.65107 9.88134C5.46877 9.96021 5.26043 10.0659 5.07813 10.1447C5.05209 10.1447 5.05209 10.1708 5.02604 10.1447H5C5.07813 10.013 5.15626 9.90738 5.23439 9.77642C5.65107 9.06508 6.0938 8.35449 6.51048 7.64314C6.95321 6.88046 7.42198 6.11629 7.86471 5.35286C8.2814 4.64227 8.69808 3.93167 9.11477 3.24711C9.42728 2.71956 9.7398 2.22028 10.0263 1.69273C10.0784 1.69273 10.0784 1.66669 10.1044 1.66669C10.1044 1.66669 10.0784 1.66669 10.1044 1.66669Z" fill="#8C8C8C"/>
<path d="M15.1565 10.1448C14.7658 10.4082 14.3492 10.6448 13.9585 10.8814C12.6824 11.6456 11.4324 12.383 10.1563 13.1464C10.1302 13.1464 10.1302 13.1724 10.1042 13.1724C10.0781 13.1724 10.0781 13.1464 10.0781 13.1464V7.85374C10.0781 7.8277 10.1042 7.8277 10.1302 7.8277C10.2344 7.87978 10.3386 7.93336 10.4688 7.98544C10.7813 8.14393 11.1198 8.27563 11.4324 8.43338C11.7188 8.56508 11.9793 8.69678 12.2657 8.8017C12.5522 8.9334 12.8126 9.0651 13.0991 9.19681C13.3335 9.30247 13.5939 9.40738 13.8283 9.53908C14.0627 9.64474 14.3231 9.74966 14.5575 9.88136C14.7398 9.96023 14.9221 10.0659 15.1304 10.1448C15.1304 10.1187 15.1304 10.1448 15.1565 10.1448Z" fill="#141414"/>
<path d="M10.1057 18.3335C10.0797 18.3335 10.1057 18.3335 10.1057 18.3335C10.0797 18.3335 10.0797 18.3335 10.0536 18.3067C9.53275 17.5701 9.03794 16.8587 8.51708 16.1214L6.95451 13.91C6.4597 13.1994 5.93884 12.4888 5.44403 11.7506L5.05339 11.1978C5.05339 11.1717 5.02734 11.1717 5.02734 11.1457C5.05339 11.1457 5.05339 11.1717 5.07943 11.1717C5.78259 11.5929 6.51179 12.014 7.21494 12.4352C8.02227 12.9359 8.85564 13.4099 9.66297 13.91C9.79318 13.9888 9.94944 14.0677 10.0797 14.1466C10.1057 14.1466 10.1057 14.1734 10.1057 14.1994V18.3335Z" fill="#8C8C8C"/>
<path d="M5 9.86915C5 9.84311 5 9.84311 5 9.86915C5.26043 9.73745 5.52086 9.63254 5.78128 9.50083L6.79696 9.02685C7.05738 8.89515 7.31781 8.79024 7.57824 8.65853C7.94284 8.474 8.33348 8.31626 8.69808 8.13172C8.95851 8.02607 9.21894 7.89436 9.47937 7.78945C9.66167 7.71057 9.84397 7.6317 10.0263 7.52604C10.0523 7.52604 10.0523 7.5 10.0784 7.5V12.8708C10.0523 12.8976 10.0523 12.8708 10.0263 12.8708C9.94814 12.8187 9.87001 12.7919 9.81792 12.7391L5.05209 9.89594C5.02604 9.86915 5 9.86915 5 9.86915ZM15.0786 10.8439C15.0786 10.8699 15.0786 10.8699 15.0525 10.896C13.542 13.0553 12.0316 15.1878 10.5211 17.3472C10.3648 17.5838 10.2086 17.7944 10.0523 18.0317V13.8448C10.3909 13.6342 10.7294 13.4236 11.068 13.2398L15.0525 10.8699C15.0525 10.8439 15.0786 10.8439 15.0786 10.8439Z" fill="#3C3C3B"/>
<path d="M10.1055 7.82749V1.69403L15.1057 10.0664C15.1317 10.0925 15.1578 10.1185 15.1578 10.1453C15.0536 10.0932 14.9494 10.0396 14.8192 9.98756C14.689 9.93473 14.5588 9.85585 14.4286 9.80302C14.3505 9.77698 14.2723 9.72415 14.1682 9.69736C14.0379 9.64528 13.8817 9.56566 13.7515 9.51358C13.6733 9.48679 13.5952 9.4347 13.5171 9.40792L12.9702 9.1713C12.866 9.11847 12.7879 9.09243 12.6837 9.0396C12.5535 8.98677 12.4233 8.9079 12.2931 8.85507C12.2149 8.82902 12.1368 8.77619 12.0587 8.75015L11.5118 8.51279C11.4076 8.4607 11.3295 8.43392 11.2253 8.38109C11.0951 8.329 10.9649 8.24938 10.8347 8.19655C10.7565 8.14447 10.6524 8.11768 10.5742 8.0656L10.1055 7.82823V7.82749Z" fill="#343434"/>
</g>
</svg>
