<svg width="85" height="12" viewBox="0 0 85 12" fill="none" xmlns="http://www.w3.org/2000/svg">
<g clip-path="url(#clip0_2358_9913)">
<path d="M9.50447 0V2.28H4.99911C3.7339 2.28 2.68964 3.2772 2.54769 4.56C2.53658 4.6584 2.53041 4.758 2.53041 4.86V7.14C2.53041 7.242 2.53658 7.3416 2.54769 7.44C2.68964 8.7228 3.7339 9.72 4.99911 9.72H9.00703L8.51082 12H4.99911C4.10173 12 3.25867 11.7696 2.53041 11.3676C1.80955 10.968 1.20102 10.4016 0.761591 9.72C0.330803 9.0516 0.0617173 8.274 0.0098686 7.44C0.00369841 7.3404 0 7.2408 0 7.14V4.86C0 4.7592 0.00369841 4.65959 0.0098686 4.56C0.0617173 3.726 0.330803 2.9484 0.761589 2.28C1.20102 1.5984 1.80955 1.032 2.53041 0.632396C3.25867 0.230399 4.10173 0 4.99911 0H9.50447Z" fill="white"/>
<path d="M20.4683 7.44C20.119 5.83642 19.3437 2.27407 18.9315 0.379851C18.8832 0.157956 18.6819 0 18.4486 0H13.3624C13.1291 0 12.9279 0.157725 12.8796 0.379599C12.0644 4.12374 11.1604 8.28527 10.3516 12H12.9375L13.4115 9.72H18.3995L18.8735 12H21.4607L20.4683 7.44ZM13.8855 7.44C14.1506 6.16572 14.6957 3.5414 14.9569 2.28H16.8541C17.1155 3.53713 17.6629 6.17044 17.9268 7.44H13.8855Z" fill="white"/>
<path d="M75.2222 7.44C74.8729 5.83642 74.0976 2.27407 73.6854 0.379851C73.6371 0.157956 73.4358 0 73.2025 0H68.1163C67.883 0 67.6818 0.157725 67.6335 0.379599C66.8183 4.12374 65.9143 8.28527 65.1055 12H67.6914L68.1654 9.72H73.1534L73.6274 12H76.2146L75.2222 7.44ZM68.6394 7.44C68.9045 6.16572 69.4496 3.5414 69.7108 2.28H71.608C71.8694 3.53713 72.4168 6.17044 72.6807 7.44H68.6394Z" fill="white"/>
<path d="M30.7195 7.03919C33.697 5.55578 33.4351 1.33826 30.285 0.218401C29.8801 0.0768015 29.4444 0 28.9889 0H23.1875V12H25.7179V8.81519L28.3261 7.9044C28.9483 9.0409 29.9475 10.8676 30.5664 12H33.4326L30.7195 7.03919ZM25.7179 6.3888V2.28H28.9889C29.7049 2.28 30.285 2.9244 30.285 3.72C30.2837 4.3231 29.9471 4.89429 29.3691 5.0964L25.7179 6.3888V6.3888Z" fill="white"/>
<path d="M45.2305 4.56C45.1787 3.726 44.9096 2.9484 44.4788 2.28C44.0394 1.5984 43.4308 1.032 42.71 0.632396C41.9817 0.230399 41.1387 0 40.2413 0H35.2422V12H40.2413C41.1387 12 41.9817 11.7696 42.71 11.3676C43.4308 10.968 44.0394 10.4016 44.4788 9.72C44.9096 9.0516 45.1787 8.274 45.2305 7.44C45.2367 7.3404 45.2404 7.2408 45.2404 7.14V4.86C45.2404 4.7592 45.2367 4.65959 45.2305 4.56ZM42.71 7.14C42.71 7.242 42.7038 7.3416 42.6927 7.44C42.552 8.7228 41.5077 9.72 40.2413 9.72H37.7726V2.28H40.2413C41.5077 2.28 42.552 3.2772 42.6927 4.56C42.7038 4.6584 42.71 4.758 42.71 4.86V7.14Z" fill="white"/>
<path d="M49.9874 0H47.457V12H49.9874V0Z" fill="white"/>
<path d="M64.3044 12H61.642C61.4845 12 61.3367 11.9272 61.2437 11.8036C59.6792 9.72339 57.6163 6.98249 56.0837 4.9428C55.6278 7.0393 55.0039 9.90608 54.5481 12H51.9609C52.5704 9.19899 53.4727 5.05506 54.0766 2.28H54.0803L54.0779 2.2764L52.3658 0H55.0281C55.1857 0 55.3334 0.072597 55.4264 0.196304C56.9119 2.173 58.8153 4.69985 60.273 6.6408C60.5656 5.29744 61.4142 1.3982 61.7185 0H64.3044C63.6732 2.89836 62.9104 6.4086 62.2801 9.3072L64.3044 12Z" fill="white"/>
<path d="M84.9249 9.72L84.4286 12H78.2594C77.9867 12 77.7656 11.7851 77.7656 11.52V0H80.296V9.72H84.9249Z" fill="white"/>
</g>
<defs>
<clipPath id="clip0_2358_9913">
<rect width="84.9231" height="12" fill="white"/>
</clipPath>
</defs>
</svg>
